<?xml version="1.0" standalone="no"?><!DOCTYPE svg PUBLIC "-//W3C//DTD SVG 1.1//EN" "http://www.w3.org/Graphics/SVG/1.1/DTD/svg11.dtd"><svg t="1690474700709" class="icon" viewBox="0 0 1024 1024" version="1.1" xmlns="http://www.w3.org/2000/svg" p-id="1055" xmlns:xlink="http://www.w3.org/1999/xlink" width="128" height="128"><path d="M512 729.984a218.048 218.048 0 1 1 218.048-218.048 43.584 43.584 0 0 1-87.232 0A130.816 130.816 0 1 0 512 642.752a43.584 43.584 0 0 1 0 87.232z m0 174.4a392.448 392.448 0 1 1 392.448-392.448 43.584 43.584 0 0 1-87.232 0 305.216 305.216 0 1 0-122.496 244.608L481.088 542.912a43.584 43.584 0 0 1 61.504-61.504l246.784 246.784a43.584 43.584 0 0 1 0 61.504A392.448 392.448 0 0 1 512 904.448z" fill="#000000" fill-opacity="0.9" p-id="1056"></path></svg>